<svg width="60" height="60" viewBox="0 0 40 40" fill="none" xmlns="http://www.w3.org/2000/svg">
<path d="M32.5 15.0001H29.1667V10.8334C29.1667 8.40226 28.2009 6.07069 26.4818 4.3516C24.7627 2.63252 22.4312 1.66675 20 1.66675H18.3334C15.9022 1.66675 13.5706 2.63252 11.8515 4.3516C10.1325 6.07069 9.16669 8.40226 9.16669 10.8334V15.0001H5.83335C5.39133 15.0001 4.9674 15.1757 4.65484 15.4882C4.34228 15.8008 4.16669 16.2247 4.16669 16.6667V36.6667C4.16669 37.1088 4.34228 37.5327 4.65484 37.8453C4.9674 38.1578 5.39133 38.3334 5.83335 38.3334H32.5C32.942 38.3334 33.366 38.1578 33.6785 37.8453C33.9911 37.5327 34.1667 37.1088 34.1667 36.6667V16.6667C34.1667 16.2247 33.9911 15.8008 33.6785 15.4882C33.366 15.1757 32.942 15.0001 32.5 15.0001ZM12.5 10.8334C12.5 9.28632 13.1146 7.80259 14.2086 6.70862C15.3025 5.61466 16.7863 5.00008 18.3334 5.00008H20C21.5471 5.00008 23.0308 5.61466 24.1248 6.70862C25.2188 7.80259 25.8334 9.28632 25.8334 10.8334V15.0001H12.5V10.8334ZM30.8334 35.0001H7.50002V18.3334H30.8334V35.0001Z" fill="black"/>
<path d="M12.5 29.1667C13.8807 29.1667 15 28.0475 15 26.6667C15 25.286 13.8807 24.1667 12.5 24.1667C11.1193 24.1667 10 25.286 10 26.6667C10 28.0475 11.1193 29.1667 12.5 29.1667Z" fill="black"/>
<path d="M19.1667 29.1667C20.5474 29.1667 21.6667 28.0475 21.6667 26.6667C21.6667 25.286 20.5474 24.1667 19.1667 24.1667C17.786 24.1667 16.6667 25.286 16.6667 26.6667C16.6667 28.0475 17.786 29.1667 19.1667 29.1667Z" fill="black"/>
<path d="M25.8333 29.1667C27.214 29.1667 28.3333 28.0475 28.3333 26.6667C28.3333 25.286 27.214 24.1667 25.8333 24.1667C24.4526 24.1667 23.3333 25.286 23.3333 26.6667C23.3333 28.0475 24.4526 29.1667 25.8333 29.1667Z" fill="black"/>
</svg>
