<svg width="60" height="60" viewBox="0 0 60 60" fill="none" xmlns="http://www.w3.org/2000/svg">
<path d="M43.5 55C33.2932 54.9868 23.5083 50.9263 16.291 43.709C9.07372 36.4917 5.01323 26.7068 5 16.5C5 13.45 6.2116 10.5249 8.36827 8.36825C10.5249 6.21158 13.45 4.99998 16.5 4.99998C17.1459 4.99506 17.7906 5.05368 18.425 5.17498C19.0383 5.26573 19.6412 5.41645 20.225 5.62498C20.6356 5.76905 21.0015 6.01781 21.2865 6.34666C21.5715 6.67551 21.7658 7.07305 21.85 7.49998L25.275 22.5C25.3673 22.9071 25.3562 23.3309 25.2427 23.7327C25.1291 24.1344 24.9168 24.5014 24.625 24.8C24.3 25.15 24.275 25.175 21.2 26.775C23.6625 32.1771 27.983 36.5154 33.375 39C35 35.9 35.025 35.875 35.375 35.55C35.6736 35.2582 36.0405 35.0459 36.4423 34.9323C36.844 34.8188 37.2678 34.8077 37.675 34.9L52.675 38.325C53.0883 38.4209 53.4703 38.6203 53.7852 38.9046C54.1001 39.1889 54.3375 39.5486 54.475 39.95C54.686 40.5434 54.8449 41.154 54.95 41.775C55.0506 42.4033 55.1008 43.0387 55.1 43.675C55.0539 46.7119 53.8082 49.6073 51.6349 51.7291C49.4616 53.8509 46.5372 55.0267 43.5 55ZM16.5 9.99998C14.7781 10.0066 13.1286 10.6935 11.9111 11.9111C10.6935 13.1286 10.0066 14.7781 10 16.5C10.0066 25.3827 13.5382 33.8997 19.8192 40.1807C26.1003 46.4618 34.6173 49.9934 43.5 50C45.2219 49.9934 46.8714 49.3065 48.0889 48.0889C49.3065 46.8713 49.9934 45.2219 50 43.5C50 43.225 50 42.95 50 42.675L38.4 40L37.675 41.375C36.55 43.55 35.725 45.125 33.625 44.275C29.4822 42.7921 25.7217 40.4051 22.6168 37.2872C19.5119 34.1693 17.1406 30.3989 15.675 26.25C14.775 24.3 16.475 23.4 18.625 22.275L20 21.6L17.325 9.99998H16.5Z" fill="#231F20"/>
</svg>
