<svg width="60" height="60" viewBox="0 0 60 60" fill="none" xmlns="http://www.w3.org/2000/svg">
<path d="M51.975 28.35L43.625 11.65C43.0014 10.4009 42.0415 9.35064 40.8534 8.61746C39.6653 7.88427 38.2961 7.49727 36.9 7.50001H23.1C21.7039 7.49727 20.3347 7.88427 19.1466 8.61746C17.9585 9.35064 16.9986 10.4009 16.375 11.65L8.02501 28.35C7.67675 29.0487 7.49695 29.8193 7.50001 30.6V45C7.50001 46.9891 8.29018 48.8968 9.69671 50.3033C11.1032 51.7098 13.0109 52.5 15 52.5H45C46.9891 52.5 48.8968 51.7098 50.3033 50.3033C51.7098 48.8968 52.5 46.9891 52.5 45V30.6C52.5031 29.8193 52.3233 29.0487 51.975 28.35ZM20.85 13.875C21.0597 13.4589 21.3814 13.1097 21.779 12.8667C22.1765 12.6238 22.6341 12.4968 23.1 12.5H36.9C37.3659 12.4968 37.8235 12.6238 38.221 12.8667C38.6186 13.1097 38.9404 13.4589 39.15 13.875L45.95 27.5H40C39.337 27.5 38.7011 27.7634 38.2322 28.2322C37.7634 28.7011 37.5 29.337 37.5 30V37.5H22.5V30C22.5 29.337 22.2366 28.7011 21.7678 28.2322C21.2989 27.7634 20.6631 27.5 20 27.5H14.05L20.85 13.875ZM45 47.5H15C14.337 47.5 13.7011 47.2366 13.2322 46.7678C12.7634 46.2989 12.5 45.6631 12.5 45V32.5H17.5V40C17.5 40.6631 17.7634 41.2989 18.2322 41.7678C18.7011 42.2366 19.337 42.5 20 42.5H40C40.6631 42.5 41.2989 42.2366 41.7678 41.7678C42.2366 41.2989 42.5 40.6631 42.5 40V32.5H47.5V45C47.5 45.6631 47.2366 46.2989 46.7678 46.7678C46.2989 47.2366 45.6631 47.5 45 47.5Z" fill="#231F20"/>
</svg>
