<svg width="60" height="60" viewBox="0 0 60 60" fill="none" xmlns="http://www.w3.org/2000/svg">
<path d="M37.5 40H22.5C21.837 40 21.2011 40.2634 20.7322 40.7322C20.2634 41.2011 20 41.837 20 42.5C20 43.163 20.2634 43.7989 20.7322 44.2678C21.2011 44.7366 21.837 45 22.5 45H37.5C38.163 45 38.7989 44.7366 39.2678 44.2678C39.7366 43.7989 40 43.163 40 42.5C40 41.837 39.7366 41.2011 39.2678 40.7322C38.7989 40.2634 38.163 40 37.5 40Z" fill="#231F20"/>
<path d="M22.5 35H30C30.663 35 31.2989 34.7366 31.7678 34.2678C32.2366 33.7989 32.5 33.163 32.5 32.5C32.5 31.837 32.2366 31.2011 31.7678 30.7322C31.2989 30.2634 30.663 30 30 30H22.5C21.837 30 21.2011 30.2634 20.7322 30.7322C20.2634 31.2011 20 31.837 20 32.5C20 33.163 20.2634 33.7989 20.7322 34.2678C21.2011 34.7366 21.837 35 22.5 35Z" fill="#231F20"/>
<path d="M49.35 20.825L35.75 5.82496C35.5163 5.56598 35.2309 5.35879 34.9123 5.2167C34.5937 5.07462 34.2489 5.00079 33.9 4.99996H16.4C15.5694 4.99005 14.7449 5.14386 13.9738 5.4526C13.2026 5.76134 12.4998 6.21897 11.9055 6.79935C11.3111 7.37972 10.837 8.07149 10.51 8.83513C10.1831 9.59877 10.0098 10.4193 10 11.25V48.75C10.0098 49.5806 10.1831 50.4011 10.51 51.1648C10.837 51.9284 11.3111 52.6202 11.9055 53.2006C12.4998 53.781 13.2026 54.2386 13.9738 54.5473C14.7449 54.8561 15.5694 55.0099 16.4 55H43.6C44.4306 55.0099 45.2551 54.8561 46.0262 54.5473C46.7974 54.2386 47.5002 53.781 48.0945 53.2006C48.6889 52.6202 49.163 51.9284 49.49 51.1648C49.8169 50.4011 49.9902 49.5806 50 48.75V22.5C49.9984 21.8804 49.7667 21.2835 49.35 20.825ZM35 12.5L41.85 20H36.85C36.5882 19.9842 36.3322 19.9164 36.0969 19.8005C35.8615 19.6847 35.6516 19.5232 35.4794 19.3254C35.3072 19.1276 35.1761 18.8974 35.0938 18.6484C35.0115 18.3994 34.9796 18.1364 35 17.875V12.5ZM43.6 50H16.4C16.2259 50.0101 16.0516 49.9858 15.8869 49.9284C15.7223 49.871 15.5706 49.7817 15.4405 49.6656C15.3105 49.5494 15.2046 49.4088 15.129 49.2517C15.0534 49.0946 15.0096 48.9241 15 48.75V11.25C15.0096 11.0759 15.0534 10.9054 15.129 10.7483C15.2046 10.5911 15.3105 10.4505 15.4405 10.3344C15.5706 10.2182 15.7223 10.1289 15.8869 10.0715C16.0516 10.0142 16.2259 9.98983 16.4 9.99996H30V17.875C29.9596 19.7165 30.6494 21.4993 31.9187 22.8341C33.188 24.169 34.9337 24.9476 36.775 25H45V48.75C44.9904 48.9241 44.9466 49.0946 44.871 49.2517C44.7954 49.4088 44.6895 49.5494 44.5595 49.6656C44.4294 49.7817 44.2777 49.871 44.1131 49.9284C43.9484 49.9858 43.7741 50.0101 43.6 50Z" fill="#231F20"/>
</svg>
