<svg width="60" height="60" viewBox="0 0 60 60" fill="none" xmlns="http://www.w3.org/2000/svg">
<path d="M50 29.575C49.337 29.575 48.7011 29.8384 48.2322 30.3072C47.7634 30.7761 47.5 31.412 47.5 32.075V46C47.5 46.3978 47.342 46.7794 47.0607 47.0607C46.7794 47.342 46.3978 47.5 46 47.5H14C13.6022 47.5 13.2206 47.342 12.9393 47.0607C12.658 46.7794 12.5 46.3978 12.5 46V14C12.5 13.6022 12.658 13.2206 12.9393 12.9393C13.2206 12.658 13.6022 12.5 14 12.5H37.925C38.588 12.5 39.2239 12.2366 39.6928 11.7678C40.1616 11.2989 40.425 10.663 40.425 10C40.425 9.33696 40.1616 8.70107 39.6928 8.23223C39.2239 7.76339 38.588 7.5 37.925 7.5H14C12.2781 7.50658 10.6286 8.19352 9.41108 9.41108C8.19352 10.6286 7.50658 12.2781 7.5 14V46C7.50658 47.7219 8.19352 49.3714 9.41108 50.5889C10.6286 51.8065 12.2781 52.4934 14 52.5H46C47.7219 52.4934 49.3714 51.8065 50.5889 50.5889C51.8065 49.3714 52.4934 47.7219 52.5 46V32.075C52.5 31.412 52.2366 30.7761 51.7678 30.3072C51.2989 29.8384 50.663 29.575 50 29.575Z" fill="#231F20"/>
<path d="M26.8 27.5C26.3309 27.0781 25.7196 26.8491 25.0887 26.8591C24.4578 26.8691 23.8541 27.1173 23.3985 27.5539C22.943 27.9904 22.6694 28.5831 22.6326 29.2129C22.5957 29.8428 22.7984 30.4633 23.2 30.95L28.75 36.775C28.9824 37.0187 29.2616 37.213 29.5709 37.3462C29.8802 37.4794 30.2133 37.5487 30.55 37.55C30.885 37.5519 31.2169 37.4865 31.5262 37.3577C31.8354 37.2289 32.1155 37.0392 32.35 36.8L49.3 19.3C49.5298 19.0636 49.7108 18.7843 49.8327 18.4779C49.9546 18.1716 50.0149 17.8443 50.0102 17.5146C50.0056 17.185 49.9361 16.8595 49.8056 16.5567C49.6752 16.2539 49.4864 15.9798 49.25 15.75C49.0136 15.5202 48.7343 15.3392 48.428 15.2173C48.1216 15.0954 47.7943 15.0351 47.4647 15.0397C47.135 15.0444 46.8095 15.1139 46.5067 15.2443C46.204 15.3748 45.9298 15.5636 45.7 15.8L30.575 31.45L26.8 27.5Z" fill="#231F20"/>
</svg>
